<?xml version="1.0" encoding="UTF-8" standalone="no"?>
<!DOCTYPE svg PUBLIC "-//W3C//DTD SVG 1.1//EN"
 "http://www.w3.org/Graphics/SVG/1.1/DTD/svg11.dtd">
<!-- Generated by graphviz version 2.42.4 (0)
 -->
<!-- Title: OrchestrationHierarchyA Pages: 1 -->
<svg width="1118pt" height="473pt"
 viewBox="0.00 0.00 1118.00 473.00" xmlns="http://www.w3.org/2000/svg" xmlns:xlink="http://www.w3.org/1999/xlink">
<g id="graph0" class="graph" transform="scale(1 1) rotate(0) translate(4 469)">
<title>OrchestrationHierarchyA</title>
<g id="clust1" class="cluster">
<title>cluster_orch</title>
<path fill="transparent" stroke="#5a5a72" stroke-width="1.2" stroke-dasharray="5,2" d="M20,-164C20,-164 372,-164 372,-164 378,-164 384,-170 384,-176 384,-176 384,-445 384,-445 384,-451 378,-457 372,-457 372,-457 20,-457 20,-457 14,-457 8,-451 8,-445 8,-445 8,-176 8,-176 8,-170 14,-164 20,-164"/>
</g>
<g id="clust2" class="cluster">
<title>cluster_exec</title>
<path fill="transparent" stroke="#5a5a72" stroke-width="1.2" stroke-dasharray="5,2" d="M404,-83C404,-83 740,-83 740,-83 746,-83 752,-89 752,-95 752,-95 752,-225 752,-225 752,-231 746,-237 740,-237 740,-237 404,-237 404,-237 398,-237 392,-231 392,-225 392,-225 392,-95 392,-95 392,-89 398,-83 404,-83"/>
</g>
<g id="clust3" class="cluster">
<title>cluster_gate</title>
<path fill="transparent" stroke="#5a5a72" stroke-width="1.2" stroke-dasharray="5,2" d="M772,-8C772,-8 1090,-8 1090,-8 1096,-8 1102,-14 1102,-20 1102,-20 1102,-144 1102,-144 1102,-150 1096,-156 1090,-156 1090,-156 772,-156 772,-156 766,-156 760,-150 760,-144 760,-144 760,-20 760,-20 760,-14 766,-8 772,-8"/>
</g>
<!-- hdr_orch -->
<g id="node1" class="node">
<title>hdr_orch</title>
<path fill="#2a2a3c" stroke="#7aa2f7" stroke-width="1.4" d="M258,-441C258,-441 134,-441 134,-441 128,-441 122,-435 122,-429 122,-429 122,-417 122,-417 122,-411 128,-405 134,-405 134,-405 258,-405 258,-405 264,-405 270,-411 270,-417 270,-417 270,-429 270,-429 270,-435 264,-441 258,-441"/>
<text text-anchor="start" x="134" y="-420.6" font-family="DejaVu Sans" font-weight="bold" font-size="13.00" fill="#e6e9f0">ORCHESTRATION</text>
</g>
<!-- founder -->
<g id="node2" class="node">
<title>founder</title>
<path fill="#1e1e2e" stroke="#7aa2f7" stroke-width="2" d="M338.5,-376C338.5,-376 53.5,-376 53.5,-376 47.5,-376 41.5,-370 41.5,-364 41.5,-364 41.5,-342 41.5,-342 41.5,-336 47.5,-330 53.5,-330 53.5,-330 338.5,-330 338.5,-330 344.5,-330 350.5,-336 350.5,-342 350.5,-342 350.5,-364 350.5,-364 350.5,-370 344.5,-376 338.5,-376"/>
<text text-anchor="start" x="138.5" y="-354.8" font-family="DejaVu Sans" font-weight="bold" font-size="14.00" fill="#e6e9f0">founder (COO)</text>
<text text-anchor="start" x="58.5" y="-344" font-family="DejaVu Sans" font-size="10.00" fill="#b8bed0">turns an idea into a value&#45;stationed path · staffs the line</text>
</g>
<!-- hdr_orch&#45;&gt;founder -->
<!-- builder_lead -->
<g id="node3" class="node">
<title>builder_lead</title>
<path fill="#1e1e2e" stroke="#9aa2c0" stroke-width="1.4" d="M356.5,-301C356.5,-301 35.5,-301 35.5,-301 29.5,-301 23.5,-295 23.5,-289 23.5,-289 23.5,-267 23.5,-267 23.5,-261 29.5,-255 35.5,-255 35.5,-255 356.5,-255 356.5,-255 362.5,-255 368.5,-261 368.5,-267 368.5,-267 368.5,-289 368.5,-289 368.5,-295 362.5,-301 356.5,-301"/>
<text text-anchor="start" x="148.5" y="-279.8" font-family="DejaVu Sans" font-weight="bold" font-size="14.00" fill="#e6e9f0">builder&#45;lead</text>
<text text-anchor="start" x="40.5" y="-269" font-family="DejaVu Sans" font-size="10.00" fill="#b8bed0">ingests ROADMAP · tiers + budgets · emits DELIVER_PLAN.md</text>
</g>
<!-- founder&#45;&gt;builder_lead -->
<g id="edge4" class="edge">
<title>founder&#45;&gt;builder_lead</title>
<path fill="none" stroke="#9aa2c0" stroke-width="1.4" d="M196,-329.7C196,-323.33 196,-316.28 196,-309.51"/>
<polygon fill="#9aa2c0" stroke="#9aa2c0" stroke-width="1.4" points="198.8,-309.16 196,-301.16 193.2,-309.16 198.8,-309.16"/>
</g>
<!-- lifecycle -->
<g id="node4" class="node">
<title>lifecycle</title>
<path fill="#1e1e2e" stroke="#9aa2c0" stroke-width="1.4" d="M352,-226C352,-226 48,-226 48,-226 42,-226 36,-220 36,-214 36,-214 36,-192 36,-192 36,-186 42,-180 48,-180 48,-180 352,-180 352,-180 358,-180 364,-186 364,-192 364,-192 364,-214 364,-214 364,-220 358,-226 352,-226"/>
<text text-anchor="start" x="115" y="-204.8" font-family="DejaVu Sans" font-weight="bold" font-size="14.00" fill="#e6e9f0">lifecycle&#45;orchestrator</text>
<text text-anchor="start" x="53" y="-194" font-family="DejaVu Sans" font-size="10.00" fill="#b8bed0">drives ONE item through steps 0–9 + story · enforcing gates</text>
</g>
<!-- builder_lead&#45;&gt;lifecycle -->
<g id="edge5" class="edge">
<title>builder_lead&#45;&gt;lifecycle</title>
<path fill="none" stroke="#9aa2c0" stroke-width="1.4" d="M197.22,-254.7C197.57,-248.33 197.96,-241.28 198.33,-234.51"/>
<polygon fill="#9aa2c0" stroke="#9aa2c0" stroke-width="1.4" points="201.14,-234.3 198.79,-226.16 195.55,-234 201.14,-234.3"/>
</g>
<!-- execution -->
<g id="node6" class="node">
<title>execution</title>
<path fill="#1e1e2e" stroke="#9aa2c0" stroke-width="1.4" d="M724.5,-145C724.5,-145 419.5,-145 419.5,-145 413.5,-145 407.5,-139 407.5,-133 407.5,-133 407.5,-111 407.5,-111 407.5,-105 413.5,-99 419.5,-99 419.5,-99 724.5,-99 724.5,-99 730.5,-99 736.5,-105 736.5,-111 736.5,-111 736.5,-133 736.5,-133 736.5,-139 730.5,-145 724.5,-145"/>
<text text-anchor="start" x="488.5" y="-123.8" font-family="DejaVu Sans" font-weight="bold" font-size="14.00" fill="#e6e9f0">ds&#45;step&#45;* + handler&#45;*</text>
<text text-anchor="start" x="424.5" y="-113" font-family="DejaVu Sans" font-size="10.00" fill="#b8bed0">do the station work — value&#45;handlers staff stations by stack</text>
</g>
<!-- lifecycle&#45;&gt;execution -->
<g id="edge6" class="edge">
<title>lifecycle&#45;&gt;execution</title>
<path fill="none" stroke="#9aa2c0" stroke-width="1.4" d="M303.62,-179.99C352.39,-169.64 410.64,-157.27 460.38,-146.7"/>
<polygon fill="#9aa2c0" stroke="#9aa2c0" stroke-width="1.4" points="461.04,-149.43 468.29,-145.02 459.88,-143.95 461.04,-149.43"/>
</g>
<!-- hdr_exec -->
<g id="node5" class="node">
<title>hdr_exec</title>
<path fill="#2a2a3c" stroke="#9aa2c0" stroke-width="1.4" d="M611,-221C611,-221 533,-221 533,-221 527,-221 521,-215 521,-209 521,-209 521,-197 521,-197 521,-191 527,-185 533,-185 533,-185 611,-185 611,-185 617,-185 623,-191 623,-197 623,-197 623,-209 623,-209 623,-215 617,-221 611,-221"/>
<text text-anchor="start" x="533" y="-200.9" font-family="DejaVu Sans" font-weight="bold" font-size="12.00" fill="#e6e9f0">EXECUTION</text>
</g>
<!-- hdr_exec&#45;&gt;execution -->
<!-- reviewer -->
<g id="node8" class="node">
<title>reviewer</title>
<path fill="#2a2a3c" stroke="#bb9af7" stroke-width="2" d="M1074,-70C1074,-70 788,-70 788,-70 782,-70 776,-64 776,-58 776,-58 776,-36 776,-36 776,-30 782,-24 788,-24 788,-24 1074,-24 1074,-24 1080,-24 1086,-30 1086,-36 1086,-36 1086,-58 1086,-58 1086,-64 1080,-70 1074,-70"/>
<text text-anchor="start" x="896" y="-48.8" font-family="DejaVu Sans" font-weight="bold" font-size="14.00" fill="#e6e9f0">reviewer</text>
<text text-anchor="start" x="793" y="-38" font-family="DejaVu Sans" font-size="10.00" fill="#b8bed0">adversarial gate panel: PASS / NEEDS_REVISION / BLOCK</text>
</g>
<!-- execution&#45;&gt;reviewer -->
<g id="edge7" class="edge">
<title>execution&#45;&gt;reviewer</title>
<path fill="none" stroke="#9aa2c0" stroke-width="1.4" d="M677.45,-98.95C702.84,-93.68 729.88,-88.11 755,-83 773.17,-79.31 792.39,-75.44 811.21,-71.68"/>
<polygon fill="#9aa2c0" stroke="#9aa2c0" stroke-width="1.4" points="811.95,-74.39 819.25,-70.08 810.85,-68.9 811.95,-74.39"/>
</g>
<!-- hdr_gate -->
<g id="node7" class="node">
<title>hdr_gate</title>
<path fill="#2a2a3c" stroke="#bb9af7" stroke-width="1.4" d="M947,-140C947,-140 915,-140 915,-140 909,-140 903,-134 903,-128 903,-128 903,-116 903,-116 903,-110 909,-104 915,-104 915,-104 947,-104 947,-104 953,-104 959,-110 959,-116 959,-116 959,-128 959,-128 959,-134 953,-140 947,-140"/>
<text text-anchor="start" x="915" y="-120.2" font-family="DejaVu Sans" font-weight="bold" font-size="11.00" fill="#e6e9f0">GATE</text>
</g>
<!-- hdr_gate&#45;&gt;reviewer -->
</g>
</svg>
