<?xml version="1.0" encoding="UTF-8" standalone="no"?>
<!DOCTYPE svg PUBLIC "-//W3C//DTD SVG 1.1//EN"
 "http://www.w3.org/Graphics/SVG/1.1/DTD/svg11.dtd">
<!-- Generated by graphviz version 2.42.4 (0)
 -->
<!-- Title: SoulSentinelA Pages: 1 -->
<svg width="385pt" height="626pt"
 viewBox="0.00 0.00 385.00 626.00" xmlns="http://www.w3.org/2000/svg" xmlns:xlink="http://www.w3.org/1999/xlink">
<g id="graph0" class="graph" transform="scale(1 1) rotate(0) translate(4 622)">
<title>SoulSentinelA</title>
<!-- src -->
<g id="node1" class="node">
<title>src</title>
<path fill="#1e1e2e" stroke="#9aa2c0" stroke-width="1.4" d="M335,-618C335,-618 42,-618 42,-618 36,-618 30,-612 30,-606 30,-606 30,-584 30,-584 30,-578 36,-572 42,-572 42,-572 335,-572 335,-572 341,-572 347,-578 347,-584 347,-584 347,-606 347,-606 347,-612 341,-618 335,-618"/>
<text text-anchor="start" x="61" y="-596.8" font-family="DejaVu Sans" font-weight="bold" font-size="14.00" fill="#7c84b8">①</text>
<text text-anchor="start" x="74" y="-596.8" font-family="DejaVu Sans" font-size="14.00" fill="#e6e9f0"> &#160;</text>
<text text-anchor="start" x="84" y="-596.8" font-family="DejaVu Sans" font-weight="bold" font-size="14.00" fill="#e6e9f0">SOUL.md</text>
<text text-anchor="start" x="156" y="-596.8" font-family="DejaVu Sans" font-size="14.00" fill="#e6e9f0"> &#160;· &#160;canonical, repo root</text>
<text text-anchor="start" x="46" y="-586" font-family="DejaVu Sans" font-size="10.00" fill="#7c84b8">single source of truth — the seven all&#45;systems&#45;go phrases</text>
</g>
<!-- copies -->
<g id="node2" class="node">
<title>copies</title>
<polygon fill="#1e1e2e" stroke="#8b93c8" stroke-width="1.7" points="344.5,-510 36.5,-510 32.5,-506 32.5,-464 340.5,-464 344.5,-468 344.5,-510"/>
<polyline fill="none" stroke="#8b93c8" stroke-width="1.7" points="340.5,-506 32.5,-506 "/>
<polyline fill="none" stroke="#8b93c8" stroke-width="1.7" points="340.5,-506 340.5,-464 "/>
<polyline fill="none" stroke="#8b93c8" stroke-width="1.7" points="340.5,-506 344.5,-510 "/>
<text text-anchor="start" x="59" y="-488.8" font-family="DejaVu Sans" font-weight="bold" font-size="14.00" fill="#7c84b8">②</text>
<text text-anchor="start" x="72" y="-488.8" font-family="DejaVu Sans" font-size="14.00" fill="#e6e9f0"> &#160;</text>
<text text-anchor="start" x="82" y="-488.8" font-family="DejaVu Sans" font-weight="bold" font-size="14.00" fill="#e6e9f0">plugins/&lt;each&gt;/SOUL.md</text>
<text text-anchor="start" x="282" y="-488.8" font-family="DejaVu Sans" font-size="14.00" fill="#e6e9f0"> &#160;&#160;</text>
<text text-anchor="start" x="296" y="-488.8" font-family="DejaVu Sans" font-weight="bold" font-size="14.00" fill="#8b93c8">×9</text>
<text text-anchor="start" x="48.5" y="-478" font-family="DejaVu Sans" font-size="10.00" fill="#7c84b8">one byte&#45;identical copy travels with each installed plugin</text>
</g>
<!-- src&#45;&gt;copies -->
<g id="edge1" class="edge">
<title>src&#45;&gt;copies</title>
<path fill="none" stroke="#9aa2c0" stroke-width="1.3" d="M188.5,-571.78C188.5,-556.94 188.5,-537.17 188.5,-520.56"/>
<polygon fill="#9aa2c0" stroke="#9aa2c0" stroke-width="1.3" points="192,-520.19 188.5,-510.19 185,-520.19 192,-520.19"/>
<polygon fill="#1e1e2e" stroke="transparent" points="188.5,-530 188.5,-552 364.5,-552 364.5,-530 188.5,-530"/>
<text text-anchor="start" x="193.5" y="-538.2" font-family="DejaVu Sans" font-size="11.00" fill="#e6e9f0">cp, byte&#45;identical (CI Check E)</text>
</g>
<!-- hooks -->
<g id="node3" class="node">
<title>hooks</title>
<polygon fill="#1e1e2e" stroke="#8b93c8" stroke-width="1.7" points="377,-402 4,-402 0,-398 0,-356 373,-356 377,-360 377,-402"/>
<polyline fill="none" stroke="#8b93c8" stroke-width="1.7" points="373,-398 0,-398 "/>
<polyline fill="none" stroke="#8b93c8" stroke-width="1.7" points="373,-398 373,-356 "/>
<polyline fill="none" stroke="#8b93c8" stroke-width="1.7" points="373,-398 377,-402 "/>
<text text-anchor="start" x="16" y="-380.8" font-family="DejaVu Sans" font-weight="bold" font-size="14.00" fill="#7c84b8">③</text>
<text text-anchor="start" x="29" y="-380.8" font-family="DejaVu Sans" font-size="14.00" fill="#e6e9f0"> &#160;</text>
<text text-anchor="start" x="39" y="-380.8" font-family="DejaVu Sans" font-weight="bold" font-size="14.00" fill="#e6e9f0">plugins/&lt;each&gt;/hooks/inject&#45;soul.sh</text>
<text text-anchor="start" x="325" y="-380.8" font-family="DejaVu Sans" font-size="14.00" fill="#e6e9f0"> &#160;&#160;</text>
<text text-anchor="start" x="339" y="-380.8" font-family="DejaVu Sans" font-weight="bold" font-size="14.00" fill="#8b93c8">×9</text>
<text text-anchor="start" x="61" y="-370" font-family="DejaVu Sans" font-size="10.00" fill="#7c84b8">SessionStart fires for every enabled plugin, together</text>
</g>
<!-- copies&#45;&gt;hooks -->
<g id="edge2" class="edge">
<title>copies&#45;&gt;hooks</title>
<path fill="none" stroke="#9aa2c0" stroke-width="1.3" d="M188.5,-463.78C188.5,-448.94 188.5,-429.17 188.5,-412.56"/>
<polygon fill="#9aa2c0" stroke="#9aa2c0" stroke-width="1.3" points="192,-412.19 188.5,-402.19 185,-412.19 192,-412.19"/>
<polygon fill="#1e1e2e" stroke="transparent" points="188.5,-422 188.5,-444 241.5,-444 241.5,-422 188.5,-422"/>
<text text-anchor="start" x="194" y="-430.2" font-family="DejaVu Sans" font-size="11.00" fill="#e6e9f0">read by</text>
</g>
<!-- sentinel -->
<g id="node4" class="node">
<title>sentinel</title>
<path fill="#2a2a3c" stroke="#e0af68" stroke-width="2.6" d="M341,-282C341,-282 36,-282 36,-282 30,-282 24,-276 24,-270 24,-270 24,-228 24,-228 24,-222 30,-216 36,-216 36,-216 341,-216 341,-216 347,-216 353,-222 353,-228 353,-228 353,-270 353,-270 353,-276 347,-282 341,-282"/>
<text text-anchor="start" x="116.5" y="-260.8" font-family="DejaVu Sans" font-weight="bold" font-size="14.00" fill="#e0af68">④</text>
<text text-anchor="start" x="129.5" y="-260.8" font-family="DejaVu Sans" font-size="14.00" fill="#e6e9f0"> &#160;</text>
<text text-anchor="start" x="139.5" y="-260.8" font-family="DejaVu Sans" font-weight="bold" font-size="14.00" fill="#e6e9f0">atomic sentinel</text>
<text text-anchor="start" x="104" y="-250" font-family="DejaVu Sans Mono" font-size="10.00" fill="#e6e9f0">mkdir ${TMPDIR}/claude&#45;soul/</text>
<text text-anchor="start" x="95" y="-240" font-family="DejaVu Sans Mono" font-size="10.00" fill="#e6e9f0">soul&#45;&lt;session_id&gt;&#45;&lt;source&gt;.lock</text>
<text text-anchor="start" x="40" y="-230" font-family="DejaVu Sans" font-size="10.00" fill="#e0af68">succeeds for EXACTLY ONE caller per (session, source) event</text>
</g>
<!-- hooks&#45;&gt;sentinel -->
<g id="edge3" class="edge">
<title>hooks&#45;&gt;sentinel</title>
<path fill="none" stroke="#9aa2c0" stroke-width="1.3" d="M188.5,-356C188.5,-338.55 188.5,-313.65 188.5,-292.37"/>
<polygon fill="#9aa2c0" stroke="#9aa2c0" stroke-width="1.3" points="192,-292.26 188.5,-282.26 185,-292.26 192,-292.26"/>
<polygon fill="#1e1e2e" stroke="transparent" points="188.5,-302 188.5,-336 304.5,-336 304.5,-302 188.5,-302"/>
<text text-anchor="start" x="207" y="-322.2" font-family="DejaVu Sans" font-size="11.00" fill="#e6e9f0">9 callers race;</text>
<text text-anchor="start" x="193.5" y="-310.2" font-family="DejaVu Sans" font-size="11.00" fill="#e6e9f0">mkdir wins for ONE</text>
</g>
<!-- emit -->
<g id="node5" class="node">
<title>emit</title>
<path fill="#1e1e2e" stroke="#9aa2c0" stroke-width="1.4" d="M346,-154C346,-154 31,-154 31,-154 25,-154 19,-148 19,-142 19,-142 19,-120 19,-120 19,-114 25,-108 31,-108 31,-108 346,-108 346,-108 352,-108 358,-114 358,-120 358,-120 358,-142 358,-142 358,-148 352,-154 346,-154"/>
<text text-anchor="start" x="67.5" y="-132.8" font-family="DejaVu Sans" font-weight="bold" font-size="14.00" fill="#7c84b8">⑤</text>
<text text-anchor="start" x="80.5" y="-132.8" font-family="DejaVu Sans" font-size="14.00" fill="#e6e9f0"> &#160;</text>
<text text-anchor="start" x="90.5" y="-132.8" font-family="DejaVu Sans" font-weight="bold" font-size="14.00" fill="#e6e9f0">the one winning hook prints</text>
<text text-anchor="start" x="35" y="-122" font-family="DejaVu Sans Mono" font-size="10.00" fill="#b8bed0">{ hookSpecificOutput.additionalContext: &lt;SOUL.md&gt; }</text>
</g>
<!-- sentinel&#45;&gt;emit -->
<g id="edge4" class="edge">
<title>sentinel&#45;&gt;emit</title>
<path fill="none" stroke="#9aa2c0" stroke-width="1.3" d="M188.5,-216C188.5,-199.93 188.5,-180.51 188.5,-164.4"/>
<polygon fill="#9aa2c0" stroke="#9aa2c0" stroke-width="1.3" points="192,-164.35 188.5,-154.35 185,-164.35 192,-164.35"/>
<polygon fill="#1e1e2e" stroke="transparent" points="188.5,-174 188.5,-196 292.5,-196 292.5,-174 188.5,-174"/>
<text text-anchor="start" x="193.5" y="-182.2" font-family="DejaVu Sans" font-size="11.00" fill="#e6e9f0">the winner emits</text>
</g>
<!-- landed -->
<g id="node6" class="node">
<title>landed</title>
<path fill="#22301c" stroke="#9ece6a" stroke-width="2.4" d="M328.5,-46C328.5,-46 48.5,-46 48.5,-46 42.5,-46 36.5,-40 36.5,-34 36.5,-34 36.5,-12 36.5,-12 36.5,-6 42.5,0 48.5,0 48.5,0 328.5,0 328.5,0 334.5,0 340.5,-6 340.5,-12 340.5,-12 340.5,-34 340.5,-34 340.5,-40 334.5,-46 328.5,-46"/>
<text text-anchor="start" x="52.5" y="-24.8" font-family="DejaVu Sans" font-weight="bold" font-size="14.00" fill="#7c84b8">⑥</text>
<text text-anchor="start" x="65.5" y="-24.8" font-family="DejaVu Sans" font-size="14.00" fill="#e6e9f0"> &#160;</text>
<text text-anchor="start" x="75.5" y="-24.8" font-family="DejaVu Sans" font-weight="bold" font-size="14.00" fill="#e6e9f0">SOUL lands in the cached prefix</text>
<text text-anchor="start" x="78.5" y="-14" font-family="DejaVu Sans" font-size="10.00" fill="#a9d977">ONCE per event &#160;— &#160;never 9×, never omitted</text>
</g>
<!-- emit&#45;&gt;landed -->
<g id="edge5" class="edge">
<title>emit&#45;&gt;landed</title>
<path fill="none" stroke="#9aa2c0" stroke-width="1.3" d="M188.5,-107.78C188.5,-92.94 188.5,-73.17 188.5,-56.56"/>
<polygon fill="#9aa2c0" stroke="#9aa2c0" stroke-width="1.3" points="192,-56.19 188.5,-46.19 185,-56.19 192,-56.19"/>
<polygon fill="#1e1e2e" stroke="transparent" points="188.5,-66 188.5,-88 296.5,-88 296.5,-66 188.5,-66"/>
<text text-anchor="start" x="193.5" y="-74.2" font-family="DejaVu Sans" font-size="11.00" fill="#e6e9f0">additionalContext</text>
</g>
</g>
</svg>
