<?xml version="1.0" encoding="UTF-8" standalone="no"?>
<!DOCTYPE svg PUBLIC "-//W3C//DTD SVG 1.1//EN"
 "http://www.w3.org/Graphics/SVG/1.1/DTD/svg11.dtd">
<!-- Generated by graphviz version 2.42.4 (0)
 -->
<!-- Title: DomainArchB Pages: 1 -->
<svg width="982pt" height="654pt"
 viewBox="12.96 12.96 968.96 640.96" xmlns="http://www.w3.org/2000/svg" xmlns:xlink="http://www.w3.org/1999/xlink">
<g id="graph0" class="graph" transform="scale(1 1) rotate(0) translate(16.96 636.96)">
<title>DomainArchB</title>
<polygon fill="#12121b" stroke="transparent" points="-4,4 -4,-624 952,-624 952,4 -4,4"/>
<g id="clust1" class="cluster">
<title>cluster_upstream</title>
<path fill="transparent" stroke="#7aa2f7" stroke-width="2" d="M20,-475C20,-475 419,-475 419,-475 425,-475 431,-481 431,-487 431,-487 431,-600 431,-600 431,-606 425,-612 419,-612 419,-612 20,-612 20,-612 14,-612 8,-606 8,-600 8,-600 8,-487 8,-487 8,-481 14,-475 20,-475"/>
</g>
<g id="clust3" class="cluster">
<title>cluster_core</title>
<path fill="transparent" stroke="#9ece6a" stroke-width="2.4" d="M112,-8C112,-8 554,-8 554,-8 560,-8 566,-14 566,-20 566,-20 566,-436 566,-436 566,-442 560,-448 554,-448 554,-448 112,-448 112,-448 106,-448 100,-442 100,-436 100,-436 100,-20 100,-20 100,-14 106,-8 112,-8"/>
</g>
<g id="clust4" class="cluster">
<title>cluster_core_cells</title>
<path fill="transparent" stroke="#6f8f4e" stroke-width="1.3" d="M126,-22C126,-22 540,-22 540,-22 546,-22 552,-28 552,-34 552,-34 552,-334 552,-334 552,-340 546,-346 540,-346 540,-346 126,-346 126,-346 120,-346 114,-340 114,-334 114,-334 114,-34 114,-34 114,-28 120,-22 126,-22"/>
</g>
<g id="clust8" class="cluster">
<title>cluster_companions</title>
<path fill="transparent" stroke="#e0af68" stroke-width="2" d="M578,-386C578,-386 862,-386 862,-386 868,-386 874,-392 874,-398 874,-398 874,-600 874,-600 874,-606 868,-612 862,-612 862,-612 578,-612 578,-612 572,-612 566,-606 566,-600 566,-600 566,-398 566,-398 566,-392 572,-386 578,-386"/>
</g>
<!-- up_title -->
<g id="node1" class="node">
<title>up_title</title>
<defs>
<linearGradient id="l_0" gradientUnits="userSpaceOnUse" x1="144" y1="-600" x2="144" y2="-564" >
<stop offset="0" style="stop-color:#2f3a5c;stop-opacity:1.;"/>
<stop offset="1" style="stop-color:#1f2840;stop-opacity:1.;"/>
</linearGradient>
</defs>
<path fill="url(#l_0)" stroke="#7aa2f7" stroke-width="1.8" d="M255.5,-600C255.5,-600 32.5,-600 32.5,-600 26.5,-600 20.5,-594 20.5,-588 20.5,-588 20.5,-576 20.5,-576 20.5,-570 26.5,-564 32.5,-564 32.5,-564 255.5,-564 255.5,-564 261.5,-564 267.5,-570 267.5,-576 267.5,-576 267.5,-588 267.5,-588 267.5,-594 261.5,-600 255.5,-600"/>
<text text-anchor="middle" x="144" y="-578.9" font-family="DejaVu Sans" font-size="12.00" fill="#cdd9f6">UPSTREAM &#160;(discovery → refinement)</text>
</g>
<!-- scanner -->
<g id="node2" class="node">
<title>scanner</title>
<defs>
<linearGradient id="l_1" gradientUnits="userSpaceOnUse" x1="82" y1="-523" x2="82" y2="-487" >
<stop offset="0" style="stop-color:#2a3450;stop-opacity:1.;"/>
<stop offset="1" style="stop-color:#19202f;stop-opacity:1.;"/>
</linearGradient>
</defs>
<path fill="url(#l_1)" stroke="#7aa2f7" stroke-width="1.6" d="M132,-523C132,-523 32,-523 32,-523 26,-523 20,-517 20,-511 20,-511 20,-499 20,-499 20,-493 26,-487 32,-487 32,-487 132,-487 132,-487 138,-487 144,-493 144,-499 144,-499 144,-511 144,-511 144,-517 138,-523 132,-523"/>
<text text-anchor="start" x="55.5" y="-507.2" font-family="DejaVu Sans" font-weight="bold" font-size="11.00" fill="#e6e9f0">discover</text>
<text text-anchor="start" x="32" y="-497.8" font-family="DejaVu Sans" font-size="9.00" fill="#9fb6ee">DISCOVERY front door</text>
</g>
<!-- up_title&#45;&gt;scanner -->
<!-- ideate -->
<g id="node3" class="node">
<title>ideate</title>
<defs>
<linearGradient id="l_2" gradientUnits="userSpaceOnUse" x1="332" y1="-523" x2="332" y2="-487" >
<stop offset="0" style="stop-color:#2a3450;stop-opacity:1.;"/>
<stop offset="1" style="stop-color:#19202f;stop-opacity:1.;"/>
</linearGradient>
</defs>
<path fill="url(#l_2)" stroke="#7aa2f7" stroke-width="1.6" d="M406.5,-523C406.5,-523 257.5,-523 257.5,-523 251.5,-523 245.5,-517 245.5,-511 245.5,-511 245.5,-499 245.5,-499 245.5,-493 251.5,-487 257.5,-487 257.5,-487 406.5,-487 406.5,-487 412.5,-487 418.5,-493 418.5,-499 418.5,-499 418.5,-511 418.5,-511 418.5,-517 412.5,-523 406.5,-523"/>
<text text-anchor="start" x="312" y="-507.2" font-family="DejaVu Sans" font-weight="bold" font-size="11.00" fill="#e6e9f0">ideate</text>
<text text-anchor="start" x="257.5" y="-497.8" font-family="DejaVu Sans" font-size="9.00" fill="#9fb6ee">REFINEMENT · the IDEA package</text>
</g>
<!-- scanner&#45;&gt;ideate -->
<g id="edge2" class="edge">
<title>scanner&#45;&gt;ideate</title>
<path fill="none" stroke="#7aa2f7" stroke-width="1.3" d="M144.12,-505C171.53,-505 204.4,-505 234.93,-505"/>
<polygon fill="#7aa2f7" stroke="#7aa2f7" stroke-width="1.3" points="235.18,-508.5 245.18,-505 235.18,-501.5 235.18,-508.5"/>
<text text-anchor="middle" x="194.75" y="-511" font-family="DejaVu Sans" font-size="10.00" fill="#8fa6e0"> &#160;scan → ideate &#160;</text>
</g>
<!-- core_title -->
<g id="node4" class="node">
<title>core_title</title>
<defs>
<linearGradient id="l_3" gradientUnits="userSpaceOnUse" x1="332" y1="-434" x2="332" y2="-398" >
<stop offset="0" style="stop-color:#36471f;stop-opacity:1.;"/>
<stop offset="1" style="stop-color:#222e18;stop-opacity:1.;"/>
</linearGradient>
</defs>
<path fill="url(#l_3)" stroke="#9ece6a" stroke-width="2" d="M422.5,-434C422.5,-434 241.5,-434 241.5,-434 235.5,-434 229.5,-428 229.5,-422 229.5,-422 229.5,-410 229.5,-410 229.5,-404 235.5,-398 241.5,-398 241.5,-398 422.5,-398 422.5,-398 428.5,-398 434.5,-404 434.5,-410 434.5,-410 434.5,-422 434.5,-422 434.5,-428 428.5,-434 422.5,-434"/>
<text text-anchor="start" x="241.5" y="-413.9" font-family="DejaVu Sans" font-weight="bold" font-size="12.00" fill="#d4e7b0">foundry</text>
<text text-anchor="start" x="293.5" y="-413.9" font-family="DejaVu Sans" font-size="12.00" fill="#d4e7b0"> — the core conveyor</text>
</g>
<!-- ideate&#45;&gt;core_title -->
<g id="edge15" class="edge">
<title>ideate&#45;&gt;core_title</title>
<path fill="none" stroke="#7aa2f7" stroke-width="1.8" d="M332,-475C332,-469.55 332,-463.75 332,-458.01"/>
<polygon fill="#7aa2f7" stroke="#7aa2f7" stroke-width="1.8" points="335.5,-458 332,-448 328.5,-458 335.5,-458"/>
<text text-anchor="middle" x="379" y="-459" font-family="DejaVu Sans" font-size="10.00" fill="#8fa6e0">feeds the conveyor</text>
</g>
<!-- cell_conveyor -->
<g id="node5" class="node">
<title>cell_conveyor</title>
<defs>
<linearGradient id="l_4" gradientUnits="userSpaceOnUse" x1="241" y1="-332.5" x2="241" y2="-296.5" >
<stop offset="0" style="stop-color:#33334a;stop-opacity:1.;"/>
<stop offset="1" style="stop-color:#1d1d2a;stop-opacity:1.;"/>
</linearGradient>
</defs>
<path fill="url(#l_4)" stroke="#9ece6a" stroke-width="1.8" d="M313.5,-332.5C313.5,-332.5 168.5,-332.5 168.5,-332.5 162.5,-332.5 156.5,-326.5 156.5,-320.5 156.5,-320.5 156.5,-308.5 156.5,-308.5 156.5,-302.5 162.5,-296.5 168.5,-296.5 168.5,-296.5 313.5,-296.5 313.5,-296.5 319.5,-296.5 325.5,-302.5 325.5,-308.5 325.5,-308.5 325.5,-320.5 325.5,-320.5 325.5,-326.5 319.5,-332.5 313.5,-332.5"/>
<text text-anchor="start" x="193.5" y="-316.7" font-family="DejaVu Sans" font-weight="bold" font-size="11.00" fill="#e6e9f0">THE CONVEYOR</text>
<text text-anchor="start" x="168.5" y="-307.3" font-family="DejaVu Sans" font-size="9.00" fill="#b9d595">IDEA ▶ ROADMAP ▶ … ▶ VERIFY</text>
</g>
<!-- core_title&#45;&gt;cell_conveyor -->
<!-- cell_orch -->
<g id="node6" class="node">
<title>cell_orch</title>
<defs>
<linearGradient id="l_5" gradientUnits="userSpaceOnUse" x1="439" y1="-336" x2="439" y2="-293" >
<stop offset="0" style="stop-color:#26263a;stop-opacity:1.;"/>
<stop offset="1" style="stop-color:#15151f;stop-opacity:1.;"/>
</linearGradient>
</defs>
<path fill="url(#l_5)" stroke="#9ece6a" stroke-width="1.6" d="M515,-336C515,-336 363,-336 363,-336 357,-336 351,-330 351,-324 351,-324 351,-305 351,-305 351,-299 357,-293 363,-293 363,-293 515,-293 515,-293 521,-293 527,-299 527,-305 527,-305 527,-324 527,-324 527,-330 521,-336 515,-336"/>
<text text-anchor="start" x="387.5" y="-321.2" font-family="DejaVu Sans" font-weight="bold" font-size="11.00" fill="#e6e9f0">ORCHESTRATION</text>
<text text-anchor="start" x="364" y="-311.8" font-family="DejaVu Sans" font-size="9.00" fill="#b9d595">founder ▶ builder&#45;lead ▶ lifecycle</text>
<text text-anchor="start" x="363" y="-302.8" font-family="DejaVu Sans" font-size="9.00" fill="#b9d595">▶ ds&#45;step&#45;* / handler&#45;* ▶ reviewer</text>
</g>
<!-- core_title&#45;&gt;cell_orch -->
<!-- cell_handlers -->
<g id="node7" class="node">
<title>cell_handlers</title>
<defs>
<linearGradient id="l_6" gradientUnits="userSpaceOnUse" x1="239" y1="-244" x2="239" y2="-208" >
<stop offset="0" style="stop-color:#26263a;stop-opacity:1.;"/>
<stop offset="1" style="stop-color:#15151f;stop-opacity:1.;"/>
</linearGradient>
</defs>
<path fill="url(#l_6)" stroke="#9ece6a" stroke-width="1.6" d="M342,-244C342,-244 136,-244 136,-244 130,-244 124,-238 124,-232 124,-232 124,-220 124,-220 124,-214 130,-208 136,-208 136,-208 342,-208 342,-208 348,-208 354,-214 354,-220 354,-220 354,-232 354,-232 354,-238 348,-244 342,-244"/>
<text text-anchor="start" x="184" y="-228.2" font-family="DejaVu Sans" font-weight="bold" font-size="11.00" fill="#e6e9f0">VALUE&#45;HANDLERS</text>
<text text-anchor="start" x="136" y="-218.8" font-family="DejaVu Sans" font-size="9.00" fill="#b9d595">handler&#45;{architect, python, …, rust&#45;webapp}</text>
</g>
<!-- cell_conveyor&#45;&gt;cell_handlers -->
<!-- cell_pillars -->
<g id="node8" class="node">
<title>cell_pillars</title>
<defs>
<linearGradient id="l_7" gradientUnits="userSpaceOnUse" x1="459" y1="-252" x2="459" y2="-200" >
<stop offset="0" style="stop-color:#2c3322;stop-opacity:1.;"/>
<stop offset="1" style="stop-color:#181d12;stop-opacity:1.;"/>
</linearGradient>
</defs>
<path fill="url(#l_7)" stroke="#9ece6a" stroke-width="1.8" d="M530,-252C530,-252 388,-252 388,-252 382,-252 376,-246 376,-240 376,-240 376,-212 376,-212 376,-206 382,-200 388,-200 388,-200 530,-200 530,-200 536,-200 542,-206 542,-212 542,-212 542,-240 542,-240 542,-246 536,-252 530,-252"/>
<text text-anchor="start" x="419.5" y="-237.2" font-family="DejaVu Sans" font-weight="bold" font-size="11.00" fill="#e6e9f0">THE PILLARS</text>
<text text-anchor="start" x="389.5" y="-227.8" font-family="DejaVu Sans" font-size="9.00" fill="#b9d595">knowledge&#45;parity · quality&#45;first</text>
<text text-anchor="start" x="388" y="-218.8" font-family="DejaVu Sans" font-size="9.00" fill="#b9d595">+ perf&#45;delta · waste&#45;elimination</text>
<text text-anchor="start" x="410.5" y="-209.8" font-family="DejaVu Sans" font-size="9.00" fill="#b9d595">(muda · mura · muri)</text>
</g>
<!-- cell_orch&#45;&gt;cell_pillars -->
<!-- cell_corpus -->
<g id="node9" class="node">
<title>cell_corpus</title>
<defs>
<linearGradient id="l_8" gradientUnits="userSpaceOnUse" x1="234" y1="-159" x2="234" y2="-116" >
<stop offset="0" style="stop-color:#26263a;stop-opacity:1.;"/>
<stop offset="1" style="stop-color:#15151f;stop-opacity:1.;"/>
</linearGradient>
</defs>
<path fill="url(#l_8)" stroke="#9ece6a" stroke-width="1.6" d="M314,-159C314,-159 154,-159 154,-159 148,-159 142,-153 142,-147 142,-147 142,-128 142,-128 142,-122 148,-116 154,-116 154,-116 314,-116 314,-116 320,-116 326,-122 326,-128 326,-128 326,-147 326,-147 326,-153 320,-159 314,-159"/>
<text text-anchor="start" x="167.5" y="-144.2" font-family="DejaVu Sans" font-weight="bold" font-size="11.00" fill="#e6e9f0">KNOWLEDGE CORPUS</text>
<text text-anchor="start" x="154" y="-134.8" font-family="DejaVu Sans" font-size="9.00" fill="#b9d595">pillars/ architecture/ specs/ testing/</text>
<text text-anchor="start" x="162.5" y="-125.8" font-family="DejaVu Sans" font-size="9.00" fill="#b9d595">protocols/ orchestration/ policy/</text>
</g>
<!-- cell_handlers&#45;&gt;cell_corpus -->
<!-- cell_design -->
<g id="node10" class="node">
<title>cell_design</title>
<defs>
<linearGradient id="l_9" gradientUnits="userSpaceOnUse" x1="445" y1="-155.5" x2="445" y2="-119.5" >
<stop offset="0" style="stop-color:#26263a;stop-opacity:1.;"/>
<stop offset="1" style="stop-color:#15151f;stop-opacity:1.;"/>
</linearGradient>
</defs>
<path fill="url(#l_9)" stroke="#9ece6a" stroke-width="1.6" d="M529.5,-155.5C529.5,-155.5 360.5,-155.5 360.5,-155.5 354.5,-155.5 348.5,-149.5 348.5,-143.5 348.5,-143.5 348.5,-131.5 348.5,-131.5 348.5,-125.5 354.5,-119.5 360.5,-119.5 360.5,-119.5 529.5,-119.5 529.5,-119.5 535.5,-119.5 541.5,-125.5 541.5,-131.5 541.5,-131.5 541.5,-143.5 541.5,-143.5 541.5,-149.5 535.5,-155.5 529.5,-155.5"/>
<text text-anchor="start" x="360.5" y="-135.7" font-family="DejaVu Sans" font-weight="bold" font-size="11.00" fill="#e6e9f0">DESIGN 6b</text>
<text text-anchor="start" x="426.5" y="-135.7" font-family="DejaVu Sans" font-size="11.00" fill="#e6e9f0"> · </text>
<text text-anchor="start" x="438.5" y="-135.7" font-family="DejaVu Sans" font-size="9.00" fill="#b9d595">frontend (vanilla&#45;JS)</text>
</g>
<!-- cell_pillars&#45;&gt;cell_design -->
<!-- secure -->
<g id="node13" class="node">
<title>secure</title>
<defs>
<linearGradient id="l_10" gradientUnits="userSpaceOnUse" x1="673" y1="-523" x2="673" y2="-487" >
<stop offset="0" style="stop-color:#3f3320;stop-opacity:1.;"/>
<stop offset="1" style="stop-color:#241c10;stop-opacity:1.;"/>
</linearGradient>
</defs>
<path fill="url(#l_10)" stroke="#e0af68" stroke-width="1.6" d="M694,-523C694,-523 652,-523 652,-523 646,-523 640,-517 640,-511 640,-511 640,-499 640,-499 640,-493 646,-487 652,-487 652,-487 694,-487 694,-487 700,-487 706,-493 706,-499 706,-499 706,-511 706,-511 706,-517 700,-523 694,-523"/>
<text text-anchor="start" x="652" y="-507.2" font-family="DejaVu Sans" font-weight="bold" font-size="11.00" fill="#e6e9f0">secure</text>
<text text-anchor="start" x="654.5" y="-497.8" font-family="DejaVu Sans" font-size="9.00" fill="#e8c98f">SECURE</text>
</g>
<!-- cell_pillars&#45;&gt;secure -->
<g id="edge16" class="edge">
<title>cell_pillars&#45;&gt;secure</title>
<path fill="none" stroke="#e0af68" stroke-width="2" stroke-dasharray="5,2" d="M566,-240.36C651.4,-257.1 766.46,-294.48 827.15,-377.59"/>
<polygon fill="#e0af68" stroke="#e0af68" stroke-width="2" points="824.42,-379.79 833,-386 830.16,-375.79 824.42,-379.79"/>
<text text-anchor="middle" x="886.5" y="-370" font-family="DejaVu Sans" font-size="10.00" fill="#d6a463">compose by capability</text>
<text text-anchor="middle" x="886.5" y="-359" font-family="DejaVu Sans" font-size="10.00" fill="#d6a463">— graceful enhancement</text>
</g>
<!-- cell_gov -->
<g id="node11" class="node">
<title>cell_gov</title>
<defs>
<linearGradient id="l_11" gradientUnits="userSpaceOnUse" x1="340" y1="-75" x2="340" y2="-32" >
<stop offset="0" style="stop-color:#26263a;stop-opacity:1.;"/>
<stop offset="1" style="stop-color:#15151f;stop-opacity:1.;"/>
</linearGradient>
</defs>
<path fill="url(#l_11)" stroke="#9ece6a" stroke-width="1.6" d="M403,-75C403,-75 277,-75 277,-75 271,-75 265,-69 265,-63 265,-63 265,-44 265,-44 265,-38 271,-32 277,-32 277,-32 403,-32 403,-32 409,-32 415,-38 415,-44 415,-44 415,-63 415,-63 415,-69 409,-75 403,-75"/>
<text text-anchor="start" x="297.5" y="-60.2" font-family="DejaVu Sans" font-weight="bold" font-size="11.00" fill="#e6e9f0">GOVERNANCE</text>
<text text-anchor="start" x="277" y="-50.8" font-family="DejaVu Sans" font-size="9.00" fill="#b9d595">code&#45;quality · reviewer&#45;gate</text>
<text text-anchor="start" x="295" y="-41.8" font-family="DejaVu Sans" font-size="9.00" fill="#b9d595">reviewer · inspector</text>
</g>
<!-- cell_corpus&#45;&gt;cell_gov -->
<!-- cell_design&#45;&gt;cell_gov -->
<!-- co_title -->
<g id="node12" class="node">
<title>co_title</title>
<defs>
<linearGradient id="l_12" gradientUnits="userSpaceOnUse" x1="720" y1="-600" x2="720" y2="-564" >
<stop offset="0" style="stop-color:#473a22;stop-opacity:1.;"/>
<stop offset="1" style="stop-color:#2a2114;stop-opacity:1.;"/>
</linearGradient>
</defs>
<path fill="url(#l_12)" stroke="#e0af68" stroke-width="1.8" d="M849.5,-600C849.5,-600 590.5,-600 590.5,-600 584.5,-600 578.5,-594 578.5,-588 578.5,-588 578.5,-576 578.5,-576 578.5,-570 584.5,-564 590.5,-564 590.5,-564 849.5,-564 849.5,-564 855.5,-564 861.5,-570 861.5,-576 861.5,-576 861.5,-588 861.5,-588 861.5,-594 855.5,-600 849.5,-600"/>
<text text-anchor="middle" x="720" y="-578.9" font-family="DejaVu Sans" font-size="12.00" fill="#f0d6a4">COMPANIONS &#160;(cross&#45;cutting, by capability)</text>
</g>
<!-- co_title&#45;&gt;secure -->
<!-- publish -->
<g id="node14" class="node">
<title>publish</title>
<defs>
<linearGradient id="l_13" gradientUnits="userSpaceOnUse" x1="785" y1="-523" x2="785" y2="-487" >
<stop offset="0" style="stop-color:#3f3320;stop-opacity:1.;"/>
<stop offset="1" style="stop-color:#241c10;stop-opacity:1.;"/>
</linearGradient>
</defs>
<path fill="url(#l_13)" stroke="#e0af68" stroke-width="1.6" d="M807.5,-523C807.5,-523 762.5,-523 762.5,-523 756.5,-523 750.5,-517 750.5,-511 750.5,-511 750.5,-499 750.5,-499 750.5,-493 756.5,-487 762.5,-487 762.5,-487 807.5,-487 807.5,-487 813.5,-487 819.5,-493 819.5,-499 819.5,-499 819.5,-511 819.5,-511 819.5,-517 813.5,-523 807.5,-523"/>
<text text-anchor="start" x="762.5" y="-507.2" font-family="DejaVu Sans" font-weight="bold" font-size="11.00" fill="#e6e9f0">publish</text>
<text text-anchor="start" x="765" y="-497.8" font-family="DejaVu Sans" font-size="9.00" fill="#e8c98f">PUBLISH</text>
</g>
<!-- co_title&#45;&gt;publish -->
<!-- design -->
<g id="node15" class="node">
<title>design</title>
<defs>
<linearGradient id="l_14" gradientUnits="userSpaceOnUse" x1="673" y1="-434" x2="673" y2="-398" >
<stop offset="0" style="stop-color:#352f50;stop-opacity:1.;"/>
<stop offset="1" style="stop-color:#1f1b2e;stop-opacity:1.;"/>
</linearGradient>
</defs>
<path fill="url(#l_14)" stroke="#bb9af7" stroke-width="1.6" d="M714,-434C714,-434 632,-434 632,-434 626,-434 620,-428 620,-422 620,-422 620,-410 620,-410 620,-404 626,-398 632,-398 632,-398 714,-398 714,-398 720,-398 726,-404 726,-410 726,-410 726,-422 726,-422 726,-428 720,-434 714,-434"/>
<text text-anchor="start" x="652.5" y="-418.2" font-family="DejaVu Sans" font-weight="bold" font-size="11.00" fill="#e6e9f0">design</text>
<text text-anchor="start" x="632" y="-408.8" font-family="DejaVu Sans" font-size="9.00" fill="#cbb6f0">DESIGN · usability</text>
</g>
<!-- secure&#45;&gt;design -->
<!-- mission -->
<g id="node16" class="node">
<title>mission</title>
<defs>
<linearGradient id="l_15" gradientUnits="userSpaceOnUse" x1="785" y1="-434" x2="785" y2="-398" >
<stop offset="0" style="stop-color:#352f50;stop-opacity:1.;"/>
<stop offset="1" style="stop-color:#1f1b2e;stop-opacity:1.;"/>
</linearGradient>
</defs>
<path fill="url(#l_15)" stroke="#bb9af7" stroke-width="1.6" d="M809.5,-434C809.5,-434 760.5,-434 760.5,-434 754.5,-434 748.5,-428 748.5,-422 748.5,-422 748.5,-410 748.5,-410 748.5,-404 754.5,-398 760.5,-398 760.5,-398 809.5,-398 809.5,-398 815.5,-398 821.5,-404 821.5,-410 821.5,-410 821.5,-422 821.5,-422 821.5,-428 815.5,-434 809.5,-434"/>
<text text-anchor="start" x="760.5" y="-418.2" font-family="DejaVu Sans" font-weight="bold" font-size="11.00" fill="#e6e9f0">operate</text>
<text text-anchor="start" x="764.5" y="-408.8" font-family="DejaVu Sans" font-size="9.00" fill="#cbb6f0">OPERATE</text>
</g>
<!-- publish&#45;&gt;mission -->
</g>
</svg>
