<?xml version="1.0" encoding="UTF-8" standalone="no"?>
<!DOCTYPE svg PUBLIC "-//W3C//DTD SVG 1.1//EN"
 "http://www.w3.org/Graphics/SVG/1.1/DTD/svg11.dtd">
<!-- Generated by graphviz version 2.42.4 (0)
 -->
<!-- Title: DomainArchB Pages: 1 -->
<svg width="1005pt" height="645pt"
 viewBox="12.96 12.96 991.96 631.96" xmlns="http://www.w3.org/2000/svg" xmlns:xlink="http://www.w3.org/1999/xlink">
<g id="graph0" class="graph" transform="scale(1 1) rotate(0) translate(16.96 627.96)">
<title>DomainArchB</title>
<g id="clust1" class="cluster">
<title>cluster_upstream</title>
<path fill="transparent" stroke="#7aa2f7" stroke-width="1.8" d="M20,-466C20,-466 419,-466 419,-466 425,-466 431,-472 431,-478 431,-478 431,-591 431,-591 431,-597 425,-603 419,-603 419,-603 20,-603 20,-603 14,-603 8,-597 8,-591 8,-591 8,-478 8,-478 8,-472 14,-466 20,-466"/>
</g>
<g id="clust3" class="cluster">
<title>cluster_core</title>
<path fill="transparent" stroke="#9ece6a" stroke-width="2.2" d="M112,-8C112,-8 554,-8 554,-8 560,-8 566,-14 566,-20 566,-20 566,-427 566,-427 566,-433 560,-439 554,-439 554,-439 112,-439 112,-439 106,-439 100,-433 100,-427 100,-427 100,-20 100,-20 100,-14 106,-8 112,-8"/>
</g>
<g id="clust4" class="cluster">
<title>cluster_core_cells</title>
<path fill="transparent" stroke="#6f8f4e" stroke-width="1.2" d="M126,-22C126,-22 540,-22 540,-22 546,-22 552,-28 552,-34 552,-34 552,-325 552,-325 552,-331 546,-337 540,-337 540,-337 126,-337 126,-337 120,-337 114,-331 114,-325 114,-325 114,-34 114,-34 114,-28 120,-22 126,-22"/>
</g>
<g id="clust8" class="cluster">
<title>cluster_companions</title>
<path fill="transparent" stroke="#e0af68" stroke-width="1.8" d="M578,-377C578,-377 862,-377 862,-377 868,-377 874,-383 874,-389 874,-389 874,-591 874,-591 874,-597 868,-603 862,-603 862,-603 578,-603 578,-603 572,-603 566,-597 566,-591 566,-591 566,-389 566,-389 566,-383 572,-377 578,-377"/>
</g>
<!-- up_title -->
<g id="node1" class="node">
<title>up_title</title>
<path fill="#27314d" stroke="#7aa2f7" stroke-width="1.6" d="M255.5,-591C255.5,-591 32.5,-591 32.5,-591 26.5,-591 20.5,-585 20.5,-579 20.5,-579 20.5,-567 20.5,-567 20.5,-561 26.5,-555 32.5,-555 32.5,-555 255.5,-555 255.5,-555 261.5,-555 267.5,-561 267.5,-567 267.5,-567 267.5,-579 267.5,-579 267.5,-585 261.5,-591 255.5,-591"/>
<text text-anchor="middle" x="144" y="-569.9" font-family="DejaVu Sans" font-size="12.00" fill="#cdd9f6">UPSTREAM &#160;(discovery → refinement)</text>
</g>
<!-- scanner -->
<g id="node2" class="node">
<title>scanner</title>
<path fill="#222a3f" stroke="#7aa2f7" stroke-width="1.4" d="M132,-514C132,-514 32,-514 32,-514 26,-514 20,-508 20,-502 20,-502 20,-490 20,-490 20,-484 26,-478 32,-478 32,-478 132,-478 132,-478 138,-478 144,-484 144,-490 144,-490 144,-502 144,-502 144,-508 138,-514 132,-514"/>
<text text-anchor="start" x="33.5" y="-498.2" font-family="DejaVu Sans" font-weight="bold" font-size="11.00" fill="#e6e9f0">market&#45;scanner</text>
<text text-anchor="start" x="32" y="-488.8" font-family="DejaVu Sans" font-size="9.00" fill="#9fb6ee">DISCOVERY front door</text>
</g>
<!-- up_title&#45;&gt;scanner -->
<!-- ideator -->
<g id="node3" class="node">
<title>ideator</title>
<path fill="#222a3f" stroke="#7aa2f7" stroke-width="1.4" d="M406.5,-514C406.5,-514 257.5,-514 257.5,-514 251.5,-514 245.5,-508 245.5,-502 245.5,-502 245.5,-490 245.5,-490 245.5,-484 251.5,-478 257.5,-478 257.5,-478 406.5,-478 406.5,-478 412.5,-478 418.5,-484 418.5,-490 418.5,-490 418.5,-502 418.5,-502 418.5,-508 412.5,-514 406.5,-514"/>
<text text-anchor="start" x="309.5" y="-498.2" font-family="DejaVu Sans" font-weight="bold" font-size="11.00" fill="#e6e9f0">ideator</text>
<text text-anchor="start" x="257.5" y="-488.8" font-family="DejaVu Sans" font-size="9.00" fill="#9fb6ee">REFINEMENT · the IDEA package</text>
</g>
<!-- scanner&#45;&gt;ideator -->
<g id="edge2" class="edge">
<title>scanner&#45;&gt;ideator</title>
<path fill="none" stroke="#7aa2f7" stroke-width="1.3" d="M144.12,-496C171.53,-496 204.4,-496 234.93,-496"/>
<polygon fill="#7aa2f7" stroke="#7aa2f7" stroke-width="1.3" points="235.18,-499.5 245.18,-496 235.18,-492.5 235.18,-499.5"/>
<text text-anchor="middle" x="194.75" y="-502" font-family="DejaVu Sans" font-size="10.00" fill="#8fa6e0"> &#160;scan → ideate &#160;</text>
</g>
<!-- core_title -->
<g id="node4" class="node">
<title>core_title</title>
<path fill="#2c3a22" stroke="#9ece6a" stroke-width="1.8" d="M422.5,-425C422.5,-425 241.5,-425 241.5,-425 235.5,-425 229.5,-419 229.5,-413 229.5,-413 229.5,-401 229.5,-401 229.5,-395 235.5,-389 241.5,-389 241.5,-389 422.5,-389 422.5,-389 428.5,-389 434.5,-395 434.5,-401 434.5,-401 434.5,-413 434.5,-413 434.5,-419 428.5,-425 422.5,-425"/>
<text text-anchor="start" x="241.5" y="-404.9" font-family="DejaVu Sans" font-weight="bold" font-size="12.00" fill="#d4e7b0">foundry</text>
<text text-anchor="start" x="293.5" y="-404.9" font-family="DejaVu Sans" font-size="12.00" fill="#d4e7b0"> — the core conveyor</text>
</g>
<!-- ideator&#45;&gt;core_title -->
<g id="edge15" class="edge">
<title>ideator&#45;&gt;core_title</title>
<path fill="none" stroke="#7aa2f7" stroke-width="1.8" d="M332,-466C332,-460.55 332,-454.75 332,-449.01"/>
<polygon fill="#7aa2f7" stroke="#7aa2f7" stroke-width="1.8" points="335.5,-449 332,-439 328.5,-449 335.5,-449"/>
<text text-anchor="middle" x="379" y="-450" font-family="DejaVu Sans" font-size="10.00" fill="#8fa6e0">feeds the conveyor</text>
</g>
<!-- cell_conveyor -->
<g id="node5" class="node">
<title>cell_conveyor</title>
<path fill="#2a2a3c" stroke="#9ece6a" stroke-width="1.4" d="M313.5,-323.5C313.5,-323.5 168.5,-323.5 168.5,-323.5 162.5,-323.5 156.5,-317.5 156.5,-311.5 156.5,-311.5 156.5,-299.5 156.5,-299.5 156.5,-293.5 162.5,-287.5 168.5,-287.5 168.5,-287.5 313.5,-287.5 313.5,-287.5 319.5,-287.5 325.5,-293.5 325.5,-299.5 325.5,-299.5 325.5,-311.5 325.5,-311.5 325.5,-317.5 319.5,-323.5 313.5,-323.5"/>
<text text-anchor="start" x="193.5" y="-307.7" font-family="DejaVu Sans" font-weight="bold" font-size="11.00" fill="#e6e9f0">THE CONVEYOR</text>
<text text-anchor="start" x="168.5" y="-298.3" font-family="DejaVu Sans" font-size="9.00" fill="#b9d595">IDEA ▶ ROADMAP ▶ … ▶ VERIFY</text>
</g>
<!-- core_title&#45;&gt;cell_conveyor -->
<!-- cell_orch -->
<g id="node6" class="node">
<title>cell_orch</title>
<path fill="#1e1e2e" stroke="#9ece6a" stroke-width="1.4" d="M515,-327C515,-327 363,-327 363,-327 357,-327 351,-321 351,-315 351,-315 351,-296 351,-296 351,-290 357,-284 363,-284 363,-284 515,-284 515,-284 521,-284 527,-290 527,-296 527,-296 527,-315 527,-315 527,-321 521,-327 515,-327"/>
<text text-anchor="start" x="387.5" y="-312.2" font-family="DejaVu Sans" font-weight="bold" font-size="11.00" fill="#e6e9f0">ORCHESTRATION</text>
<text text-anchor="start" x="364" y="-302.8" font-family="DejaVu Sans" font-size="9.00" fill="#b9d595">founder ▶ builder&#45;lead ▶ lifecycle</text>
<text text-anchor="start" x="363" y="-293.8" font-family="DejaVu Sans" font-size="9.00" fill="#b9d595">▶ ds&#45;step&#45;* / handler&#45;* ▶ reviewer</text>
</g>
<!-- core_title&#45;&gt;cell_orch -->
<!-- cell_handlers -->
<g id="node7" class="node">
<title>cell_handlers</title>
<path fill="#1e1e2e" stroke="#9ece6a" stroke-width="1.4" d="M342,-239.5C342,-239.5 136,-239.5 136,-239.5 130,-239.5 124,-233.5 124,-227.5 124,-227.5 124,-215.5 124,-215.5 124,-209.5 130,-203.5 136,-203.5 136,-203.5 342,-203.5 342,-203.5 348,-203.5 354,-209.5 354,-215.5 354,-215.5 354,-227.5 354,-227.5 354,-233.5 348,-239.5 342,-239.5"/>
<text text-anchor="start" x="184" y="-223.7" font-family="DejaVu Sans" font-weight="bold" font-size="11.00" fill="#e6e9f0">VALUE&#45;HANDLERS</text>
<text text-anchor="start" x="136" y="-214.3" font-family="DejaVu Sans" font-size="9.00" fill="#b9d595">handler&#45;{architect, python, …, rust&#45;webapp}</text>
</g>
<!-- cell_conveyor&#45;&gt;cell_handlers -->
<!-- cell_pillars -->
<g id="node8" class="node">
<title>cell_pillars</title>
<path fill="#1e1e2e" stroke="#9ece6a" stroke-width="1.4" d="M530,-243C530,-243 388,-243 388,-243 382,-243 376,-237 376,-231 376,-231 376,-212 376,-212 376,-206 382,-200 388,-200 388,-200 530,-200 530,-200 536,-200 542,-206 542,-212 542,-212 542,-231 542,-231 542,-237 536,-243 530,-243"/>
<text text-anchor="start" x="419.5" y="-228.2" font-family="DejaVu Sans" font-weight="bold" font-size="11.00" fill="#e6e9f0">THE PILLARS</text>
<text text-anchor="start" x="389.5" y="-218.8" font-family="DejaVu Sans" font-size="9.00" fill="#b9d595">knowledge&#45;parity · quality&#45;first</text>
<text text-anchor="start" x="388" y="-209.8" font-family="DejaVu Sans" font-size="9.00" fill="#b9d595">+ perf&#45;delta · waste&#45;elimination</text>
</g>
<!-- cell_orch&#45;&gt;cell_pillars -->
<!-- cell_corpus -->
<g id="node9" class="node">
<title>cell_corpus</title>
<path fill="#1e1e2e" stroke="#9ece6a" stroke-width="1.4" d="M314,-159C314,-159 154,-159 154,-159 148,-159 142,-153 142,-147 142,-147 142,-128 142,-128 142,-122 148,-116 154,-116 154,-116 314,-116 314,-116 320,-116 326,-122 326,-128 326,-128 326,-147 326,-147 326,-153 320,-159 314,-159"/>
<text text-anchor="start" x="167.5" y="-144.2" font-family="DejaVu Sans" font-weight="bold" font-size="11.00" fill="#e6e9f0">KNOWLEDGE CORPUS</text>
<text text-anchor="start" x="154" y="-134.8" font-family="DejaVu Sans" font-size="9.00" fill="#b9d595">pillars/ architecture/ specs/ testing/</text>
<text text-anchor="start" x="162.5" y="-125.8" font-family="DejaVu Sans" font-size="9.00" fill="#b9d595">protocols/ orchestration/ policy/</text>
</g>
<!-- cell_handlers&#45;&gt;cell_corpus -->
<!-- cell_design -->
<g id="node10" class="node">
<title>cell_design</title>
<path fill="#1e1e2e" stroke="#9ece6a" stroke-width="1.4" d="M529.5,-155.5C529.5,-155.5 360.5,-155.5 360.5,-155.5 354.5,-155.5 348.5,-149.5 348.5,-143.5 348.5,-143.5 348.5,-131.5 348.5,-131.5 348.5,-125.5 354.5,-119.5 360.5,-119.5 360.5,-119.5 529.5,-119.5 529.5,-119.5 535.5,-119.5 541.5,-125.5 541.5,-131.5 541.5,-131.5 541.5,-143.5 541.5,-143.5 541.5,-149.5 535.5,-155.5 529.5,-155.5"/>
<text text-anchor="start" x="360.5" y="-135.7" font-family="DejaVu Sans" font-weight="bold" font-size="11.00" fill="#e6e9f0">DESIGN 6b</text>
<text text-anchor="start" x="426.5" y="-135.7" font-family="DejaVu Sans" font-size="11.00" fill="#e6e9f0"> · </text>
<text text-anchor="start" x="438.5" y="-135.7" font-family="DejaVu Sans" font-size="9.00" fill="#b9d595">frontend (vanilla&#45;JS)</text>
</g>
<!-- cell_pillars&#45;&gt;cell_design -->
<!-- sentinel -->
<g id="node13" class="node">
<title>sentinel</title>
<path fill="#33291a" stroke="#e0af68" stroke-width="1.4" d="M675,-514C675,-514 625,-514 625,-514 619,-514 613,-508 613,-502 613,-502 613,-490 613,-490 613,-484 619,-478 625,-478 625,-478 675,-478 675,-478 681,-478 687,-484 687,-490 687,-490 687,-502 687,-502 687,-508 681,-514 675,-514"/>
<text text-anchor="start" x="625" y="-498.2" font-family="DejaVu Sans" font-weight="bold" font-size="11.00" fill="#e6e9f0">sentinel</text>
<text text-anchor="start" x="631.5" y="-488.8" font-family="DejaVu Sans" font-size="9.00" fill="#e8c98f">SECURE</text>
</g>
<!-- cell_pillars&#45;&gt;sentinel -->
<g id="edge16" class="edge">
<title>cell_pillars&#45;&gt;sentinel</title>
<path fill="none" stroke="#e0af68" stroke-width="2" stroke-dasharray="5,2" d="M566,-231.57C657.16,-245.43 783.64,-280.41 850.06,-368.73"/>
<polygon fill="#e0af68" stroke="#e0af68" stroke-width="2" points="847.33,-370.92 856,-377 853.01,-366.83 847.33,-370.92"/>
<text text-anchor="middle" x="909.5" y="-361" font-family="DejaVu Sans" font-size="10.00" fill="#d6a463">compose by capability</text>
<text text-anchor="middle" x="909.5" y="-350" font-family="DejaVu Sans" font-size="10.00" fill="#d6a463">— graceful enhancement</text>
</g>
<!-- cell_gov -->
<g id="node11" class="node">
<title>cell_gov</title>
<path fill="#1e1e2e" stroke="#9ece6a" stroke-width="1.4" d="M403,-75C403,-75 277,-75 277,-75 271,-75 265,-69 265,-63 265,-63 265,-44 265,-44 265,-38 271,-32 277,-32 277,-32 403,-32 403,-32 409,-32 415,-38 415,-44 415,-44 415,-63 415,-63 415,-69 409,-75 403,-75"/>
<text text-anchor="start" x="297.5" y="-60.2" font-family="DejaVu Sans" font-weight="bold" font-size="11.00" fill="#e6e9f0">GOVERNANCE</text>
<text text-anchor="start" x="277" y="-50.8" font-family="DejaVu Sans" font-size="9.00" fill="#b9d595">code&#45;quality · reviewer&#45;gate</text>
<text text-anchor="start" x="295" y="-41.8" font-family="DejaVu Sans" font-size="9.00" fill="#b9d595">reviewer · inspector</text>
</g>
<!-- cell_corpus&#45;&gt;cell_gov -->
<!-- cell_design&#45;&gt;cell_gov -->
<!-- co_title -->
<g id="node12" class="node">
<title>co_title</title>
<path fill="#3a2f1c" stroke="#e0af68" stroke-width="1.6" d="M849.5,-591C849.5,-591 590.5,-591 590.5,-591 584.5,-591 578.5,-585 578.5,-579 578.5,-579 578.5,-567 578.5,-567 578.5,-561 584.5,-555 590.5,-555 590.5,-555 849.5,-555 849.5,-555 855.5,-555 861.5,-561 861.5,-567 861.5,-567 861.5,-579 861.5,-579 861.5,-585 855.5,-591 849.5,-591"/>
<text text-anchor="middle" x="720" y="-569.9" font-family="DejaVu Sans" font-size="12.00" fill="#f0d6a4">COMPANIONS &#160;(cross&#45;cutting, by capability)</text>
</g>
<!-- co_title&#45;&gt;sentinel -->
<!-- pressroom -->
<g id="node14" class="node">
<title>pressroom</title>
<path fill="#33291a" stroke="#e0af68" stroke-width="1.4" d="M818,-514C818,-514 752,-514 752,-514 746,-514 740,-508 740,-502 740,-502 740,-490 740,-490 740,-484 746,-478 752,-478 752,-478 818,-478 818,-478 824,-478 830,-484 830,-490 830,-490 830,-502 830,-502 830,-508 824,-514 818,-514"/>
<text text-anchor="start" x="752" y="-498.2" font-family="DejaVu Sans" font-weight="bold" font-size="11.00" fill="#e6e9f0">pressroom</text>
<text text-anchor="start" x="765" y="-488.8" font-family="DejaVu Sans" font-size="9.00" fill="#e8c98f">PUBLISH</text>
</g>
<!-- co_title&#45;&gt;pressroom -->
<!-- atelier -->
<g id="node15" class="node">
<title>atelier</title>
<path fill="#2c2740" stroke="#bb9af7" stroke-width="1.4" d="M691,-425C691,-425 609,-425 609,-425 603,-425 597,-419 597,-413 597,-413 597,-401 597,-401 597,-395 603,-389 609,-389 609,-389 691,-389 691,-389 697,-389 703,-395 703,-401 703,-401 703,-413 703,-413 703,-419 697,-425 691,-425"/>
<text text-anchor="start" x="629.5" y="-409.2" font-family="DejaVu Sans" font-weight="bold" font-size="11.00" fill="#e6e9f0">atelier</text>
<text text-anchor="start" x="609" y="-399.8" font-family="DejaVu Sans" font-size="9.00" fill="#cbb6f0">DESIGN · usability</text>
</g>
<!-- sentinel&#45;&gt;atelier -->
<!-- mission -->
<g id="node16" class="node">
<title>mission</title>
<path fill="#2c2740" stroke="#bb9af7" stroke-width="1.4" d="M833,-425C833,-425 737,-425 737,-425 731,-425 725,-419 725,-413 725,-413 725,-401 725,-401 725,-395 731,-389 737,-389 737,-389 833,-389 833,-389 839,-389 845,-395 845,-401 845,-401 845,-413 845,-413 845,-419 839,-425 833,-425"/>
<text text-anchor="start" x="737" y="-409.2" font-family="DejaVu Sans" font-weight="bold" font-size="11.00" fill="#e6e9f0">mission&#45;control</text>
<text text-anchor="start" x="764.5" y="-399.8" font-family="DejaVu Sans" font-size="9.00" fill="#cbb6f0">OPERATE</text>
</g>
<!-- pressroom&#45;&gt;mission -->
</g>
</svg>
